# xmcd
#
# Track frame offsets: 
#        150
#        11669
#        23275
#        31852
#        40824
#        53704
#        65851
#        76775
#        91949
#        100255
#        112945
#        126723
#        140156
#        153767
#        165625
#
# Disc length: 2376 seconds
#
# Revision: 2
# Processed by: cddbd v1.5.2PL0 Copyright (c) Steve Scherf et al.
# Submitted via: ExactAudioCopy v0.99pb5
#
DISCID=b709460f
DTITLE=Various Artist - Simply Country - Disc 3
DYEAR=2004
DGENRE=Country
TTITLE0=The Sons Of The Pioneers - Tumbling Tumbleweeds
TTITLE1=Burl Ives - Makes No Difference Now
TTITLE2=Jim Reeves - Oklahoma Hills
TTITLE3=Patsy Cline - When A House Is Not A Home
TTITLE4=Johnny Bond - Smoke! Smoke! Smoke! (That Cigarette)
TTITLE5=Bing Crosby - Home On The Range
TTITLE6=Spade Cooley - Sioux City Sue
TTITLE7=Gene Autry - The Last Roundup
TTITLE8=Tex Ritter - Love You Big As Texas
TTITLE9=Johnny Bond - Mexicali Rose
TTITLE10=Bing Crosby And Mary Martin - Cool Water
TTITLE11=The Rouse Brothers - Orange Blossom Special
TTITLE12=Lester Flatt And Earl Scruggs - Earl's Breakdown
TTITLE13=Roy Acuff - Wabash Cannonball
TTITLE14=Hank Williams - I'm So Lonesome I Could Cry
EXTD=YEAR: 2004
EXTT0=
EXTT1=
EXTT2=
EXTT3=
EXTT4=
EXTT5=
EXTT6=
EXTT7=
EXTT8=
EXTT9=
EXTT10=
EXTT11=
EXTT12=
EXTT13=
EXTT14=
PLAYORDER=
